<?xml version="1.0" standalone="no"?>
<!DOCTYPE svg PUBLIC "-//W3C//DTD SVG 20010904//EN"
 "http://www.w3.org/TR/2001/REC-SVG-20010904/DTD/svg10.dtd">
<svg version="1.0" xmlns="http://www.w3.org/2000/svg"
 width="1773.000000pt" height="1504.000000pt" viewBox="0 0 1773.000000 1504.000000"
 preserveAspectRatio="xMidYMid meet">
<metadata>
Created by potrace 1.14, written by Peter Selinger 2001-2017
</metadata>
<g transform="translate(0.000000,1504.000000) scale(0.100000,-0.100000)"
fill="#000000" stroke="none">
<path d="M5968 10794 c-4 -3 -329 -57 -724 -119 -473 -75 -720 -118 -725 -127
-5 -7 -9 -26 -9 -41 0 -32 347 -2326 355 -2348 3 -8 -7 -75 -23 -149 -15 -74
-26 -147 -24 -162 3 -29 26 -38 35 -15 3 6 6 -3 6 -20 l1 -33 65 0 c49 0 67 4
71 15 10 25 -16 45 -57 45 -22 0 -39 4 -39 9 0 5 18 7 40 4 51 -7 74 10 66 49
-3 15 -1 30 4 33 18 11 10 24 -17 27 -36 4 -36 22 -2 26 16 2 29 11 32 22 6
25 -2 32 -23 20 -19 -10 -30 -4 -30 17 0 10 10 14 33 11 26 -2 32 0 32 17 0
15 -6 20 -25 19 -14 -1 -32 -4 -41 -8 -10 -5 -20 1 -29 19 -16 30 -15 30 30
39 22 4 30 3 21 -3 -7 -5 -11 -14 -7 -20 9 -14 58 8 52 24 -2 7 18 15 55 21
63 11 67 9 45 -15 -13 -15 -36 -142 -36 -200 0 -24 6 -30 43 -42 23 -7 49 -13
57 -12 8 1 98 -11 200 -27 102 -16 255 -34 340 -40 292 -20 395 -32 530 -62
74 -16 153 -32 175 -34 198 -24 205 -26 205 -46 0 -10 -6 -31 -14 -46 -22 -44
-84 -56 -242 -49 -74 3 -132 2 -129 -2 10 -17 100 -34 203 -40 l107 -6 3 -30
c6 -49 -15 -103 -41 -107 -16 -2 -22 -9 -21 -28 1 -14 -4 -28 -10 -32 -14 -10
7 -44 24 -40 9 2 11 -10 5 -45 -4 -26 -8 -49 -10 -51 -1 -1 -14 2 -29 8 -34
13 -56 13 -56 0 0 -5 7 -10 15 -10 9 0 18 -7 21 -15 4 -10 13 -13 24 -10 26 8
37 -15 14 -32 -15 -11 -16 -15 -5 -22 21 -13 5 -41 -24 -41 -21 0 -25 -5 -25
-29 0 -36 36 -51 43 -17 2 11 5 2 6 -22 l1 -43 -30 16 c-29 15 -30 15 -30 -5
0 -13 10 -24 25 -30 19 -7 25 -17 25 -40 0 -27 -3 -31 -22 -28 -30 4 -38 -31
-9 -39 12 -3 21 -9 21 -14 0 -12 -17 -11 -25 1 -5 8 -11 7 -21 -1 -21 -18 -17
-26 17 -33 38 -7 34 -32 -5 -28 -32 3 -36 -22 -6 -40 11 -7 20 -18 20 -24 0
-7 -8 -10 -20 -7 -15 4 -20 0 -20 -15 0 -11 7 -25 15 -32 8 -7 15 -16 15 -21
0 -5 -7 -9 -15 -9 -16 0 -20 -16 -6 -24 12 -8 13 -133 1 -171 -5 -16 -12 -57
-15 -90 -16 -159 -26 -228 -45 -325 -35 -174 -40 -201 -49 -290 -5 -47 -17
-132 -26 -190 -9 -58 -19 -136 -21 -175 -3 -38 -9 -83 -14 -100 -5 -16 -14
-70 -20 -120 -19 -153 -23 -170 -44 -170 -11 0 -21 -6 -24 -14 -3 -10 1 -12
17 -8 20 5 21 3 15 -31 -13 -76 -35 -176 -39 -180 -2 -2 -16 8 -31 23 -19 19
-42 29 -78 34 -65 9 -81 18 -65 37 15 18 3 48 -16 40 -8 -3 -17 -1 -20 4 -3 5
5 10 17 12 17 2 22 9 21 26 -2 12 2 22 7 22 6 0 10 14 10 30 0 24 -4 30 -22
30 -25 0 -76 35 -67 45 4 3 23 -4 43 -16 37 -22 45 -15 25 22 -25 47 -99 43
-99 -6 0 -13 -6 -25 -12 -28 -9 -3 -6 -13 10 -36 27 -37 11 -41 -30 -6 -32 27
-44 30 -52 16 -12 -18 15 -62 49 -83 l36 -21 -27 -28 c-25 -26 -26 -31 -14
-58 6 -16 9 -34 6 -39 -3 -6 24 -13 67 -17 100 -9 275 -43 316 -61 19 -8 37
-11 41 -7 4 4 30 166 59 358 28 193 56 373 61 400 21 106 90 618 105 775 24
247 26 264 36 276 5 6 2 19 -7 32 -13 18 -13 29 -4 57 6 19 10 69 9 112 -2 80
15 296 26 312 3 6 1 28 -4 51 -8 37 -7 44 15 65 31 31 30 52 -1 67 -21 9 -25
18 -25 54 0 24 5 46 11 49 5 4 28 -5 49 -20 34 -24 37 -29 30 -55 -10 -34 2
-41 68 -45 30 -2 42 1 42 11 0 8 6 15 13 16 6 0 17 2 22 3 6 2 16 3 23 4 6 0
12 8 12 17 0 10 4 12 13 7 6 -4 19 -6 28 -5 11 2 16 -4 15 -15 -1 -14 5 -17
27 -15 18 2 27 -2 27 -12 0 -8 3 -23 6 -33 6 -17 6 -17 -8 1 -8 10 -23 16 -34
14 -14 -2 -19 -12 -19 -38 0 -32 2 -35 27 -32 14 2 29 -2 33 -7 4 -7 -7 -11
-29 -11 -29 0 -36 -4 -36 -19 0 -17 6 -18 43 -14 34 4 40 3 30 -7 -7 -7 -25
-13 -40 -14 -23 -1 -29 -6 -31 -27 -4 -32 -26 -40 -66 -24 -35 15 -46 38 -40
80 6 34 -30 98 -58 103 -8 2 -29 -9 -46 -23 -16 -14 -42 -25 -56 -25 l-26 0 0
-799 0 -798 -32 -11 -33 -11 33 5 32 6 0 -144 0 -143 45 3 c40 4 45 2 45 -17
0 -17 6 -21 29 -21 16 0 42 5 56 10 37 14 17 38 -27 34 -33 -3 -33 -3 5 8 25
8 37 17 37 30 0 19 -15 24 -25 8 -10 -16 -25 -11 -25 8 0 13 7 18 21 18 12 -1
24 5 26 12 3 7 -6 12 -24 13 -27 0 -27 1 -5 11 12 6 22 20 22 31 0 16 -3 17
-15 7 -12 -10 -19 -7 -39 17 -28 31 -92 148 -76 138 13 -8 13 8 0 21 -19 19
-31 207 -23 384 3 96 6 193 5 215 -3 44 15 133 30 151 5 7 32 12 60 12 30 0
54 5 56 11 2 6 15 11 29 11 21 0 23 3 13 14 -6 8 -18 12 -25 10 -8 -3 -24 6
-36 20 -12 14 -26 23 -31 20 -4 -3 -8 -1 -8 5 0 5 -12 16 -27 23 l-28 13 0
124 c0 67 3 127 6 132 8 13 150 45 237 53 l72 7 1 -33 c1 -18 2 -136 3 -263 1
-126 6 -240 10 -253 7 -21 5 -23 -16 -20 -15 2 -24 11 -26 25 -2 13 -12 23
-24 25 -12 2 -23 9 -26 15 -2 9 5 11 27 7 27 -6 31 -4 31 14 0 23 -45 38 -79
27 -11 -3 -30 -1 -42 5 -15 8 -19 9 -15 1 4 -6 4 -17 -1 -23 -4 -7 -8 -25 -9
-39 -1 -21 5 -29 32 -39 19 -8 34 -20 34 -27 0 -8 12 -13 29 -13 17 0 32 -4
35 -9 3 -5 15 -7 25 -4 16 4 21 -4 30 -47 16 -75 14 -303 -4 -378 -17 -71 -48
-137 -67 -145 -9 -3 -14 -34 -16 -105 -3 -92 -2 -101 17 -111 27 -15 215 -13
508 3 147 9 318 12 438 9 l196 -6 -3 -30 c-3 -27 -10 -33 -63 -53 -40 -15 -82
-23 -127 -23 -38 -1 -68 -5 -68 -11 0 -5 9 -10 19 -10 11 0 23 -4 26 -10 4 -6
-7 -10 -24 -10 -17 0 -31 -4 -31 -10 0 -11 24 -13 57 -4 13 4 21 10 18 14 -5
7 100 30 138 30 20 0 19 3 21 -125 l1 -100 47 -3 c44 -3 47 -2 50 25 2 22 9
29 28 30 14 2 62 8 108 14 l82 11 0 47 c0 47 0 47 -30 43 -21 -3 -30 0 -30 9
0 8 -9 20 -21 27 -15 10 -20 21 -16 38 2 13 0 24 -4 24 -5 0 -9 11 -9 23 0 31
-10 40 -27 25 -12 -10 -14 -7 -11 16 1 16 12 35 24 42 19 13 24 10 65 -29 35
-35 44 -52 45 -81 1 -22 -3 -36 -10 -35 -25 3 -36 -2 -36 -15 0 -21 21 -31 31
-15 8 12 11 12 19 -1 7 -10 10 25 8 118 l-3 132 55 0 c30 0 68 -7 84 -15 15
-8 39 -12 52 -9 28 7 28 8 12 34 -10 16 -8 22 15 40 15 12 27 26 27 31 0 14
-28 11 -33 -3 -2 -7 -7 -10 -11 -7 -4 4 5 20 19 37 37 44 30 63 -9 21 -18 -20
-35 -40 -37 -46 -2 -6 -14 -14 -26 -17 -17 -6 -23 -3 -23 8 0 9 -4 16 -10 16
-5 0 -10 -7 -10 -15 0 -19 -19 -19 -26 0 -4 8 -10 13 -15 10 -4 -3 -6 -12 -3
-20 5 -12 1 -12 -20 -2 -16 8 -21 16 -15 22 14 14 11 28 -6 21 -8 -3 -15 -2
-15 2 0 4 -16 9 -36 10 -27 2 -43 -3 -61 -20 -18 -17 -36 -22 -78 -22 -46 -1
-56 -4 -64 -23 -7 -15 -7 -23 -1 -23 6 0 10 -7 10 -15 0 -7 8 -18 17 -24 14
-7 17 -21 15 -67 -4 -84 -34 -108 -34 -27 1 50 -6 73 -21 69 -7 -1 -9 -1 -4 1
14 8 7 35 -7 30 -10 -4 -13 -1 -9 9 3 8 -1 14 -10 14 -8 0 -17 9 -20 20 -4 14
-14 20 -35 20 -30 0 -30 0 -35 68 -3 37 -5 76 -5 87 1 11 -3 76 -7 145 -5 69
-9 208 -10 310 -1 183 -14 581 -23 693 -2 35 1 63 8 71 7 10 8 16 0 21 -7 4
-7 12 0 24 5 10 6 22 2 26 -4 4 4 1 18 -6 14 -8 26 -14 28 -15 10 -4 30 -168
23 -192 -5 -16 -5 -52 0 -80 11 -74 20 -231 18 -342 -3 -179 -3 -295 3 -500
l6 -205 28 3 29 2 -28 -15 c-26 -15 -27 -16 -9 -35 18 -20 19 -20 62 1 30 15
67 22 119 24 91 3 109 9 109 38 1 12 1 123 2 247 0 223 0 225 19 195 10 -16
34 -46 54 -65 25 -23 37 -44 37 -62 0 -20 5 -28 17 -28 12 0 1 -15 -31 -43
-27 -24 -47 -49 -45 -56 3 -9 24 3 63 38 61 53 97 70 56 26 -27 -29 -20 -47 9
-21 18 16 19 16 23 -19 2 -21 -2 -44 -10 -56 -11 -16 -11 -19 1 -19 22 0 48
45 35 58 -12 12 -3 62 11 62 5 0 17 -8 26 -17 14 -13 21 -14 36 -5 34 21 21
-7 -26 -56 -24 -27 -43 -57 -43 -68 1 -10 -2 -29 -6 -41 -4 -13 -3 -23 2 -23
5 0 12 9 15 20 7 28 19 25 42 -10 11 -16 23 -30 28 -30 14 0 7 24 -15 47 l-21
22 42 46 c23 25 39 50 36 55 -4 6 -26 -11 -50 -37 -24 -27 -45 -46 -48 -43 -3
3 24 37 61 75 50 53 67 66 70 53 5 -24 14 -23 48 8 l28 27 57 -64 c36 -40 54
-68 48 -74 -16 -16 -10 -26 11 -15 28 15 25 24 -16 70 -36 39 -36 41 -19 60
10 11 24 20 32 20 11 0 10 -5 -2 -24 -10 -15 -12 -27 -6 -30 5 -4 18 7 27 24
18 30 38 38 49 20 3 -5 12 -7 20 -4 7 3 23 1 34 -5 16 -9 22 -8 30 6 10 17 12
17 24 2 11 -15 15 -15 32 -3 26 19 35 18 35 -6 0 -27 27 -25 36 2 l7 23 11
-25 c9 -21 11 -14 14 52 2 47 -2 87 -9 100 -18 33 -19 87 -2 81 10 -4 13 15
13 94 0 60 -4 103 -11 110 -16 16 -21 106 -6 116 8 6 5 7 -9 4 -17 -4 -20 0
-16 19 2 13 11 24 18 24 8 0 14 5 14 10 0 6 -6 10 -14 10 -21 0 -29 60 -11 80
21 23 21 47 0 30 -19 -16 -19 0 0 26 18 24 19 45 1 38 -9 -4 -15 4 -18 25 -4
26 -2 29 13 20 26 -14 31 -11 19 10 -5 11 -19 22 -29 26 -11 3 -23 15 -26 26
-4 11 -16 25 -28 31 -12 6 -35 26 -51 45 -28 33 -28 34 -10 48 25 18 9 33 -18
16 -20 -12 -24 -11 -44 12 -12 14 -29 36 -38 48 -22 32 -33 14 -13 -20 l17
-29 -38 9 c-20 4 -50 11 -65 14 -18 4 -27 11 -25 22 2 9 -3 18 -11 21 -10 3
-12 -1 -8 -17 4 -17 1 -21 -21 -21 l-26 0 33 34 c18 19 31 40 29 46 -2 8 -21
-5 -44 -30 -39 -41 -44 -43 -120 -50 -67 -7 -80 -5 -91 9 -9 13 -9 21 3 38 21
34 17 39 -11 13 -25 -23 -34 -60 -15 -60 6 0 10 -4 10 -9 0 -14 -107 -71 -133
-71 -25 0 -65 -35 -53 -47 4 -4 16 -1 28 6 20 13 20 12 -2 -24 -13 -21 -33
-69 -46 -109 -22 -70 -22 -71 -23 -28 -1 23 4 42 9 42 6 0 10 7 10 16 0 9 -6
14 -12 11 -10 -3 -12 30 -10 152 3 138 6 158 23 177 25 27 24 37 -3 28 -21 -6
-22 -5 -8 11 11 14 12 19 3 22 -18 6 -16 21 6 50 11 13 17 31 14 39 -7 19 -21
18 -26 -3 -3 -10 -5 -3 -6 15 0 18 4 43 10 54 8 14 8 23 1 27 -10 6 -15 94
-12 239 0 41 -3 61 -10 57 -5 -3 -10 -13 -10 -21 0 -9 -11 -14 -30 -14 -23 0
-30 -4 -30 -20 0 -11 -4 -20 -10 -20 -5 0 -10 5 -10 10 0 18 -26 10 -50 -15
-17 -18 -34 -25 -60 -25 -40 0 -140 -37 -140 -51 0 -14 -58 -10 -88 5 -15 8
-36 29 -47 46 -13 20 -26 29 -37 26 -20 -5 -25 10 -5 17 8 3 6 9 -8 20 -19 15
-23 13 -61 -24 -22 -22 -44 -36 -49 -32 -4 5 -5 0 -2 -9 3 -10 2 -20 -3 -23
-6 -4 -10 0 -10 7 0 10 -2 10 -8 1 -8 -12 -50 -12 -70 1 -6 3 -13 2 -17 -4 -4
-6 -10 -8 -14 -5 -30 18 -388 26 -399 8 -4 -7 -27 -10 -60 -7 -41 3 -52 0 -52
-11 0 -17 -80 -21 -96 -5 -15 15 -72 -30 -79 -62 -4 -18 -11 -25 -21 -21 -9 3
-14 -2 -14 -17 0 -16 -4 -20 -16 -16 -9 3 -34 6 -57 6 -39 0 -40 1 -21 14 15
11 20 23 16 45 -5 33 -20 39 -41 19 -10 -11 -11 -8 -7 12 7 32 25 153 31 205
3 22 12 78 20 125 18 107 18 110 -1 110 -12 0 -15 7 -12 25 5 24 3 25 -33 21
-33 -4 -39 -2 -39 13 0 21 18 31 58 32 l27 1 -30 13 c-74 32 -73 33 -74 -40 0
-37 4 -65 9 -65 6 0 10 5 10 10 0 6 6 5 14 -2 9 -8 11 -17 5 -24 -11 -13 -1
-24 20 -24 12 0 16 -10 16 -39 0 -28 -3 -37 -13 -33 -9 3 -11 13 -7 29 5 20 1
26 -25 34 -18 7 -32 20 -36 34 -4 17 -16 25 -47 32 l-42 9 2 60 2 60 -155 23
c-142 21 -157 22 -187 8 -42 -20 -271 -41 -356 -32 -127 12 -406 46 -428 50
-21 5 -23 11 -23 63 l0 59 153 27 c83 15 210 38 280 51 l128 23 -7 -102 c-4
-55 -3 -98 1 -94 4 4 10 49 12 100 2 51 5 94 7 95 2 2 79 17 172 34 185 33
219 47 210 84 -6 22 -5 22 127 29 72 4 240 14 372 23 132 9 284 17 337 17 54
1 98 5 98 9 0 4 20 7 45 6 44 -3 45 -3 46 -38 l2 -36 6 35 c4 26 12 36 27 38
17 2 21 9 19 31 -1 15 -4 32 -7 37 -3 5 -9 97 -12 204 -4 107 -9 210 -12 228
-4 24 -1 32 11 32 8 0 15 4 15 9 0 16 -24 18 -39 4 -7 -8 -15 -12 -18 -10 -8
9 -69 527 -62 527 5 0 11 -17 14 -37 4 -21 9 -45 13 -53 3 -8 18 -98 33 -200
l28 -185 -5 165 c-3 91 -7 184 -10 208 -5 37 -3 42 14 42 12 0 22 9 26 23 10
36 7 41 -12 24 -10 -10 -21 -17 -24 -17 -9 0 -9 144 0 158 7 10 11 10 21 -2 7
-8 10 -20 6 -26 -8 -14 8 -13 22 1 6 6 9 18 6 25 -6 16 43 19 66 5 12 -8 12
-12 2 -25 -8 -9 -22 -16 -32 -16 -27 0 -24 -9 21 -55 38 -39 40 -44 45 -120 3
-44 9 -105 14 -135 5 -30 12 -122 15 -205 3 -82 8 -199 11 -260 4 -60 8 -150
10 -200 3 -49 9 -111 14 -137 10 -48 13 -137 4 -151 -3 -4 -11 -3 -19 4 -11 9
-14 7 -14 -10 0 -18 10 -25 32 -22 10 1 24 -101 20 -147 -3 -32 -8 -42 -18
-38 -15 6 -16 5 -18 -38 -1 -16 4 -30 12 -33 10 -4 8 -10 -7 -24 -25 -23 -29
-24 -27 -3 2 25 -24 29 -31 5 -7 -28 -20 -27 -26 2 l-4 22 -8 -22 c-8 -25 -21
-30 -28 -10 -4 9 -8 8 -16 -3 -10 -13 -12 -13 -20 -1 -8 12 -12 12 -24 2 -13
-10 -16 -8 -19 10 -2 12 -9 24 -15 27 -9 2 -11 -5 -7 -27 6 -27 4 -31 -17 -32
-13 -1 -29 -1 -36 0 -14 2 -27 -34 -18 -49 3 -5 12 -10 20 -10 7 0 15 -7 19
-15 5 -13 49 -15 318 -15 172 0 323 3 336 6 12 4 22 12 22 20 0 18 -111 24
-125 6 -8 -10 -24 -11 -75 -3 -36 6 -82 11 -102 11 -40 0 -54 20 -15 20 12 1
117 7 232 14 116 8 213 12 218 9 14 -8 -4 -23 -29 -23 -15 0 -24 -6 -24 -16 0
-12 7 -14 33 -9 43 10 47 13 47 36 0 12 7 19 20 19 11 0 20 4 20 9 0 5 -23 8
-51 7 -31 0 -54 4 -56 10 -7 19 55 24 120 10 107 -24 146 -26 156 -8 6 11 41
19 137 28 l129 14 20 -26 21 -27 173 13 c155 11 174 11 190 -4 23 -21 34 -20
51 4 8 11 24 20 35 20 18 0 20 6 18 53 -1 28 -4 59 -7 67 -6 19 -24 365 -36
710 -5 146 -12 288 -15 315 -9 87 -14 203 -20 445 -7 277 -11 349 -17 355 -8
8 -66 8 -247 0 -244 -10 -226 0 -224 -120 1 -54 5 -111 8 -125 7 -33 44 -780
38 -789 -4 -6 -63 93 -63 107 0 8 -70 130 -155 271 -118 198 -153 264 -151
287 3 37 -21 76 -45 72 -13 -2 -26 12 -46 49 -15 29 -53 89 -83 133 l-54 82
-91 -7 c-132 -9 -396 -9 -427 0 -19 5 -28 4 -28 -4 0 -6 7 -11 15 -11 17 0 21
-35 5 -45 -12 -8 -8 -68 7 -87 5 -7 11 -33 12 -56 l2 -44 -31 18 c-17 10 -28
24 -26 31 3 7 1 13 -4 13 -15 0 -71 56 -63 63 3 4 15 7 25 7 15 0 18 -5 13
-20 -3 -11 -3 -20 0 -20 8 0 35 26 35 34 0 13 -67 66 -83 66 -13 0 -17 5 -13
18 3 9 1 24 -4 32 -7 12 -10 8 -11 -15 0 -26 -2 -27 -9 -10 -16 38 -12 58 12
52 23 -6 58 8 58 23 0 5 -11 8 -24 7 -35 -3 -37 17 -3 21 23 3 26 6 16 18 -6
8 -18 14 -26 14 -8 0 -11 5 -8 10 3 6 17 7 31 4 20 -5 24 -3 24 16 0 16 4 20
16 16 11 -4 18 1 21 14 3 13 14 20 29 20 20 0 24 -5 24 -29 0 -16 3 -43 6 -60
6 -30 8 -31 60 -31 41 0 54 4 54 15 0 11 -13 15 -52 16 -29 1 -44 4 -33 6 11
3 33 16 50 28 52 40 112 14 103 -45 -4 -26 -1 -31 20 -37 26 -6 53 5 60 25 2
7 -7 12 -24 12 -15 0 -24 3 -20 7 4 4 22 6 41 5 44 -3 46 14 3 27 l-33 9 41 1
c27 1 44 6 48 16 3 8 10 15 16 15 6 0 9 -4 6 -9 -3 -4 5 -13 18 -19 17 -8 22
-17 19 -34 -4 -21 -1 -23 31 -23 28 0 36 4 36 18 0 12 -8 17 -27 18 -26 1 -25
2 7 10 19 5 59 12 88 15 49 6 52 5 52 -17 0 -17 3 -20 11 -12 7 7 26 9 47 6
32 -6 35 -4 29 16 -4 15 1 26 14 34 10 6 19 19 19 29 0 9 5 20 11 23 7 5 5 13
-6 25 -12 13 -39 19 -128 24 -96 6 -625 26 -682 27 -10 0 -24 4 -31 10 -7 5
-16 9 -20 8 -24 -4 -34 3 -34 26 0 30 -5 29 140 9 72 -10 151 -14 210 -11 52
2 144 1 205 -4 60 -4 166 -11 235 -15 69 -3 135 -10 148 -15 32 -12 102 -11
102 1 0 6 -22 10 -50 10 -61 0 -78 21 -81 100 -3 105 2 100 -108 100 -68 0
-115 -6 -159 -20 -87 -27 -227 -27 -307 0 -48 17 -84 20 -212 20 l-155 0 4
-52 c6 -72 -4 -153 -19 -154 -7 -1 -38 -2 -69 -3 -71 -1 -69 -22 3 -25 29 -1
58 -7 65 -14 9 -9 -2 -12 -55 -12 -37 0 -225 -5 -419 -11 -271 -8 -352 -8
-358 1 -5 8 -13 9 -26 2 -11 -5 -75 -13 -143 -16 -76 -5 -136 -13 -153 -22
-34 -18 -27 -45 -72 284 -20 139 -38 257 -41 262 -7 11 -78 14 -87 4z m-52
-597 c83 -32 129 -107 128 -212 0 -90 -16 -124 -159 -330 -14 -21 0 -28 69
-36 80 -8 148 -40 184 -86 26 -35 27 -41 34 -217 5 -99 7 -203 6 -229 -3 -48
-4 -49 -53 -70 -42 -17 -192 -113 -360 -229 l-40 -27 -172 19 c-155 18 -179
18 -252 5 -92 -16 -193 -56 -233 -93 -34 -32 -44 -85 -23 -134 19 -46 20 -97
2 -104 -8 -3 -25 0 -39 5 -63 24 -37 144 64 294 44 66 66 110 79 161 17 68 17
72 0 101 -15 26 -23 30 -59 29 -29 0 -50 -8 -65 -22 -36 -34 -49 -28 -41 16
11 60 28 85 89 127 l57 39 -7 45 c-8 55 -26 78 -82 103 -46 20 -97 18 -167 -8
-21 -8 -41 -13 -43 -10 -10 10 19 75 44 100 14 14 54 40 89 57 35 18 68 37 72
43 5 6 12 43 15 81 6 83 36 166 83 236 33 50 53 99 40 99 -4 0 -19 -6 -34 -14
-46 -23 -112 -26 -184 -9 -57 14 -74 14 -113 3 -25 -7 -58 -22 -72 -33 l-26
-21 7 30 c12 50 53 109 93 136 65 44 105 52 232 44 171 -11 204 -9 304 20 12
4 0 -17 -33 -57 -94 -117 -113 -184 -100 -358 5 -58 11 -113 14 -121 3 -8 14
-96 25 -195 25 -222 18 -291 -40 -437 -22 -55 -38 -102 -37 -104 12 -12 76 50
123 119 110 163 118 225 75 552 -37 277 -36 352 2 436 40 87 165 183 311 239
77 30 143 36 193 17z m1131 -108 c104 -50 151 -130 103 -174 -24 -21 -26 -37
-5 -29 19 8 19 -10 0 -26 -15 -13 -11 -35 5 -25 6 3 9 -14 8 -39 -3 -51 25
-94 47 -76 10 8 14 3 17 -20 4 -24 1 -30 -13 -30 -10 0 -22 -12 -27 -27 -6
-16 -11 -22 -11 -14 -1 11 -4 11 -16 1 -13 -10 -15 -9 -16 11 -1 13 -1 32 0
42 2 12 -5 17 -24 17 -22 0 -24 3 -15 19 22 42 -3 29 -28 -14 -11 -19 -11 -19
-12 6 0 14 4 29 10 35 13 13 1 54 -16 54 -8 0 -17 -6 -19 -12 -9 -29 -11 -130
-1 -135 5 -4 1 -10 -10 -14 -16 -6 -15 -8 9 -8 18 -1 27 -6 28 -18 0 -11 3
-13 6 -5 6 16 28 15 78 -2 37 -13 40 -17 40 -52 0 -29 4 -39 20 -43 11 -4 21
-13 21 -21 1 -8 5 -32 9 -52 7 -37 6 -38 -21 -39 l-29 -1 29 -12 c37 -17 48
-67 14 -63 -11 1 -23 -4 -25 -10 -3 -8 5 -13 21 -13 28 0 42 -15 24 -26 -6 -4
-14 -2 -16 4 -4 12 -32 5 -32 -9 0 -5 7 -9 15 -9 9 0 16 -10 16 -27 l2 -28 4
28 c5 32 23 37 23 6 0 -12 8 -28 18 -36 15 -12 12 -13 -30 -11 -34 2 -48 -1
-48 -9 0 -7 5 -13 11 -13 8 0 7 -6 -2 -17 -12 -15 -12 -16 5 -10 12 5 23 3 28
-5 5 -9 8 -6 8 9 0 35 17 36 23 0 11 -61 17 -203 8 -177 -5 14 -10 39 -10 55
-1 21 -4 26 -10 16 -6 -9 -18 -11 -35 -7 -15 4 -26 2 -26 -4 0 -5 14 -10 30
-10 20 0 30 -5 30 -15 0 -10 -10 -15 -30 -15 -16 0 -30 -4 -30 -10 0 -5 16
-10 35 -10 24 0 35 -5 35 -15 0 -8 7 -15 15 -15 8 0 15 -6 15 -14 0 -7 3 -28
6 -45 6 -30 6 -31 -32 -31 -32 1 -36 3 -21 11 9 6 15 14 12 20 -11 17 -31 9
-45 -16 -14 -26 -40 -34 -40 -12 0 9 -2 9 -8 0 -5 -7 -51 -15 -124 -19 -134
-8 -133 -9 -144 90 -4 31 -10 56 -13 56 -3 0 -19 -19 -36 -41 -68 -93 -181
-151 -294 -152 -98 -1 -152 15 -199 61 l-38 37 -24 175 c-13 97 -20 187 -17
202 12 48 86 144 144 187 73 55 226 129 343 167 49 16 90 33 90 37 0 4 19 26
43 47 25 24 36 40 27 40 -9 1 -5 6 10 15 14 8 21 15 15 15 -5 0 -4 4 4 9 7 5
10 14 7 20 -10 16 -26 13 -26 -5 0 -11 -5 -14 -16 -10 -8 3 -22 -1 -30 -9 -19
-18 -60 -20 -67 -2 -7 18 -71 36 -90 26 -8 -5 -27 -10 -41 -11 -14 -1 -26 -5
-26 -9 0 -4 -18 -10 -40 -14 -22 -4 -43 -11 -46 -17 -14 -23 -100 -68 -129
-68 -24 0 -35 7 -48 30 -10 17 -16 39 -12 49 5 15 2 18 -13 14 -15 -3 -29 10
-61 54 -22 32 -41 63 -41 70 0 13 85 80 129 103 21 11 25 10 35 -6 9 -17 11
-16 16 11 4 26 14 33 64 53 45 18 64 21 85 14 22 -8 30 -6 39 8 12 20 43 29
146 40 109 13 182 4 253 -31z m1069 -1041 c14 -29 75 -124 133 -212 59 -89
152 -233 205 -321 54 -88 120 -195 146 -237 39 -63 46 -79 35 -88 -8 -6 -56
-13 -107 -16 -51 -3 -131 -9 -178 -14 -106 -12 -133 -12 -126 -1 3 5 -1 14 -9
21 -13 11 -15 8 -15 -14 0 -22 -4 -26 -28 -26 -41 0 -50 34 -57 219 -3 90 -10
207 -15 260 -6 53 -13 164 -15 246 -3 83 -8 166 -10 186 -4 31 0 49 11 49 2 0
16 -23 30 -52z m-708 -1953 c6 -3 12 0 12 5 0 21 20 9 26 -16 4 -14 9 -22 13
-17 15 23 79 25 65 2 -3 -5 1 -9 8 -9 8 0 6 -5 -4 -11 -24 -14 -23 -39 2 -39
14 0 20 7 20 23 l0 22 18 -22 c19 -25 72 -42 72 -23 0 6 5 8 13 3 6 -4 21 -8
31 -8 12 0 34 -18 53 -43 37 -49 40 -60 16 -58 -12 0 -19 -7 -21 -21 -4 -27
25 -32 35 -7 9 23 23 -3 23 -43 0 -18 4 -33 9 -33 5 0 11 -9 14 -20 3 -13 0
-20 -9 -20 -22 0 -17 -31 6 -37 11 -3 20 -10 20 -15 0 -5 -9 -12 -20 -15 -29
-8 -27 -45 2 -41 18 2 25 -5 37 -42 13 -37 16 -101 15 -370 -2 -355 -10 -435
-49 -435 -11 0 -21 -8 -23 -17 -2 -11 3 -18 12 -18 20 0 20 -14 1 -34 -8 -8
-15 -22 -15 -31 0 -33 -18 -53 -45 -48 -20 4 -25 1 -25 -16 0 -11 6 -21 13
-21 16 -1 -34 -39 -51 -40 -7 0 -22 -6 -33 -12 -17 -10 -23 -10 -26 0 -6 17
-43 15 -43 -2 0 -8 -7 -17 -16 -20 -12 -5 -15 -2 -11 13 4 15 -2 20 -24 23
-25 4 -28 2 -23 -17 4 -16 0 -24 -13 -29 -10 -4 -98 -10 -195 -13 -175 -6
-177 -6 -172 14 3 12 0 31 -7 44 -9 17 -9 24 0 27 14 5 15 42 1 42 -5 0 -10 9
-10 20 0 11 7 20 15 20 22 0 18 28 -5 35 -11 3 -20 13 -20 21 0 8 9 14 20 14
11 0 20 4 20 10 0 5 -9 15 -20 22 -11 7 -20 18 -20 24 0 7 9 14 20 17 30 8 26
41 -4 35 -22 -5 -24 -2 -30 70 -7 86 -7 143 1 125 2 -7 13 -13 24 -13 28 0 25
38 -3 42 -23 3 -23 4 -26 208 -1 113 -6 225 -11 250 -5 25 -11 79 -12 120 -2
70 -1 75 19 78 15 2 22 -2 22 -12 0 -20 29 -21 36 -1 4 8 10 15 15 15 5 0 9
-7 9 -15 0 -24 34 -17 46 10 10 21 9 25 -8 31 -15 4 -17 8 -8 14 7 4 10 15 7
24 -7 18 -23 21 -32 6 -9 -15 -22 -12 -22 4 0 8 5 12 12 10 11 -5 49 26 58 48
4 10 9 9 20 -4 16 -20 33 -23 42 -8 4 6 -7 23 -24 39 -17 16 -34 25 -37 20 -3
-5 -14 -9 -25 -9 -11 0 -22 -7 -26 -15 -5 -14 -8 -14 -28 -1 -15 10 -25 12
-27 5 -2 -6 -13 -3 -27 8 -22 18 -23 23 -17 95 l8 76 71 6 c40 4 90 8 112 9
41 4 130 -2 153 -8z m1480 -176 c70 -11 115 -34 151 -75 52 -59 55 -83 56
-414 1 -287 5 -337 32 -406 5 -13 -10 -15 -108 -12 l-114 3 -3 38 c-4 48 -24
49 -86 1 -86 -65 -152 -78 -279 -51 -134 28 -201 164 -166 339 9 43 22 68 55
106 54 61 91 77 234 97 153 21 162 24 155 45 -3 10 -1 21 5 25 6 3 10 -3 10
-14 0 -30 12 -26 38 12 29 44 28 63 -6 97 -49 48 -139 60 -195 26 -10 -6 -31
-32 -47 -57 l-28 -47 -81 -7 c-103 -9 -116 -1 -108 68 11 92 79 181 164 215
64 26 205 31 321 11z"/>
<path d="M5618 10068 c-45 -26 -89 -103 -90 -156 0 -20 15 -138 32 -262 25
-175 31 -249 28 -335 -5 -141 -25 -183 -135 -283 -42 -39 -74 -74 -71 -78 4
-3 47 3 95 15 50 13 127 23 178 24 l90 2 -3 60 c-2 33 -23 199 -48 369 -24
170 -42 312 -39 315 11 11 22 -21 35 -105 10 -64 17 -84 29 -84 8 0 39 25 68
55 143 152 120 358 -51 455 -61 35 -70 36 -118 8z"/>
<path d="M5766 9541 c-41 -42 -55 -96 -38 -142 14 -35 80 -45 149 -22 68 22
85 40 77 77 -12 58 -42 103 -75 115 -52 18 -73 13 -113 -28z"/>
<path d="M5899 9365 c-3 -2 -39 -9 -79 -15 -41 -6 -78 -14 -82 -18 -13 -13 8
-113 28 -132 18 -18 23 -18 114 -3 52 9 98 20 101 25 10 16 -9 110 -27 129
-16 18 -45 25 -55 14z"/>
<path d="M5811 9168 l-53 -20 6 -52 c4 -28 15 -67 24 -86 15 -31 23 -36 69
-43 48 -8 55 -6 102 25 43 28 51 38 51 64 0 38 -26 115 -43 126 -22 14 -101 7
-156 -14z"/>
<path d="M6759 9383 c-93 -48 -119 -84 -119 -163 0 -59 8 -74 58 -99 28 -15
69 -3 135 39 l47 30 0 99 c0 55 -3 106 -6 115 -9 24 -36 19 -115 -21z"/>
<path d="M7374 6825 c-4 -8 -1 -22 5 -29 12 -15 -1 -51 -24 -68 -6 -5 -3 -8 7
-8 25 0 32 -20 12 -34 -21 -16 -12 -51 11 -42 10 4 15 -1 15 -14 0 -13 -7 -20
-20 -20 -12 0 -20 -7 -20 -16 0 -9 9 -18 20 -21 23 -6 25 -15 8 -44 -10 -17
-10 -23 -1 -26 10 -3 10 -10 2 -25 -6 -11 -8 -35 -5 -53 5 -23 2 -35 -6 -37
-10 -4 -10 -11 2 -33 12 -22 12 -29 3 -32 -18 -6 -16 -43 2 -43 8 0 15 -7 15
-15 0 -8 -7 -15 -15 -15 -8 0 -15 -6 -15 -14 0 -8 -6 -17 -12 -19 -7 -3 -1 -6
15 -6 20 -1 27 -6 27 -20 0 -12 -7 -18 -17 -17 -12 0 -19 -7 -21 -21 -3 -18 2
-23 17 -23 27 0 27 -26 1 -33 -11 -3 -20 -10 -20 -17 0 -7 9 -14 20 -17 23 -6
25 -24 8 -54 -10 -17 -10 -23 0 -26 6 -3 12 -14 12 -24 0 -11 -4 -17 -10 -14
-6 4 -10 -5 -10 -19 0 -19 5 -26 20 -26 15 0 20 -7 20 -26 0 -50 22 -104 42
-104 10 0 18 7 18 15 0 8 7 15 15 15 8 0 15 7 15 15 0 8 9 15 20 15 24 0 37
24 23 43 -5 7 -9 167 -9 374 1 200 -2 363 -6 363 -5 0 -8 9 -8 20 0 11 5 20
10 20 6 0 10 11 10 24 0 16 -7 26 -22 31 -20 6 -20 8 -5 12 23 6 22 39 -1 45
-10 3 -26 22 -36 42 -18 39 -25 43 -44 24 -10 -10 -17 -10 -32 0 -25 16 -29
15 -36 -3z"/>
<path d="M8825 6430 c-11 -5 -55 -19 -99 -31 -105 -30 -146 -67 -146 -133 0
-36 6 -52 29 -78 26 -29 35 -33 78 -33 59 1 132 35 161 75 31 41 46 107 38
163 -8 49 -18 56 -61 37z"/>
<path d="M8489 10533 c-1 -17 -1 -105 1 -165 0 -18 5 -28 15 -28 10 0 15 -11
15 -35 0 -32 2 -35 30 -35 17 0 30 -5 30 -11 0 -7 -12 -10 -30 -7 -20 3 -30 0
-30 -9 0 -8 12 -13 34 -13 37 0 46 12 46 60 0 31 7 33 120 45 36 4 75 13 87
21 12 8 34 14 48 14 15 0 25 6 25 14 0 21 18 24 165 32 98 5 133 11 141 22 7
9 33 17 68 20 l56 4 0 -136 0 -136 33 0 c18 0 38 5 43 10 6 6 17 8 25 5 11 -4
15 -40 17 -178 1 -94 -2 -202 -6 -240 -5 -37 -6 -70 -3 -73 3 -3 6 -198 6
-433 0 -342 3 -431 13 -444 8 -9 11 -20 8 -26 -9 -14 -10 -354 -1 -452 9 -102
15 -97 -119 -106 -102 -6 -151 -22 -72 -23 l48 0 -5 -120 -6 -120 164 0 165 0
0 34 0 35 -52 3 c-49 3 -53 5 -54 28 -1 32 13 60 29 57 6 -1 13 8 15 21 2 15
-2 22 -12 22 -19 0 -17 -39 -19 635 -2 673 1 801 19 837 8 16 20 28 27 28 9 0
11 -85 9 -377 -3 -356 10 -818 24 -832 3 -3 184 -6 402 -7 218 -1 442 -4 497
-8 55 -3 165 -3 244 2 137 8 145 9 160 32 9 13 45 62 80 110 57 76 121 177
121 190 0 3 -4 11 -9 18 -7 11 -16 9 -48 -12 -82 -54 -140 -59 -658 -52 -258
4 -471 9 -474 11 -2 3 2 17 9 32 11 24 34 315 30 393 0 14 -2 194 -3 400 -2
256 -7 391 -15 424 -7 27 -11 50 -10 52 2 1 215 4 473 6 415 3 479 1 543 -14
139 -33 184 -81 208 -224 19 -121 19 -126 -16 -146 -38 -22 -38 -47 0 -61 l30
-11 0 -166 c-1 -172 -14 -449 -26 -511 -10 -59 15 -55 85 13 33 33 61 56 62
51 0 -4 7 19 14 52 10 47 11 103 4 260 -6 110 -7 266 -3 347 l7 147 66 4 66 3
-67 2 -68 2 0 275 c0 318 5 302 -100 290 -40 -5 -77 -2 -120 9 -81 21 -114 20
-183 -4 -48 -17 -82 -20 -234 -20 -98 0 -261 -7 -363 -15 -375 -29 -586 -45
-637 -48 l-53 -4 0 124 0 123 -565 0 c-531 0 -565 -1 -566 -17z"/>
<path d="M11711 9828 c-184 -558 -421 -1310 -421 -1340 0 -4 12 -9 28 -12 38
-9 349 -37 394 -36 32 1 36 -2 31 -20 -3 -11 0 -20 6 -20 6 0 11 5 11 10 0 6
11 20 25 32 26 22 53 94 74 200 l12 57 42 -4 c23 -3 95 -7 160 -11 75 -4 120
-10 122 -18 2 -6 9 -64 15 -128 l12 -117 52 -10 c47 -10 154 -20 377 -36 50
-4 89 -3 92 3 7 10 -261 1774 -271 1784 -16 16 -427 58 -572 58 l-59 0 -130
-392z m382 -366 c6 -7 18 -11 28 -9 13 4 18 -5 23 -47 9 -77 7 -116 -5 -116
-8 0 -7 -6 2 -16 8 -10 16 -51 19 -101 l5 -83 -30 0 c-16 0 -60 3 -97 7 -75 7
-74 5 -57 82 8 37 14 48 25 44 8 -3 14 0 14 6 0 6 -4 11 -10 11 -5 0 -10 7
-10 15 0 8 3 15 8 15 4 0 8 23 9 51 1 28 10 68 21 89 10 22 15 41 11 42 -5 2
-3 20 3 42 l12 39 9 -29 c6 -16 14 -35 20 -42z"/>
<path d="M10406 9799 c-3 -34 -6 -237 -6 -450 l0 -389 119 0 c152 0 180 6 194
39 14 34 19 750 6 804 -13 51 -34 57 -183 57 l-123 0 -7 -61z"/>
<path d="M9233 7503 l2 -438 60 -15 c36 -9 71 -25 85 -40 26 -26 51 -100 43
-130 -3 -10 3 -91 12 -180 15 -147 15 -163 1 -179 -19 -21 -21 -52 -3 -70 10
-11 10 -14 0 -18 -17 -6 -16 -64 3 -254 11 -107 13 -163 6 -175 -7 -12 -6 -23
1 -35 9 -14 7 -22 -7 -37 -12 -14 -14 -22 -6 -27 7 -4 9 -16 6 -27 -6 -27 18
-64 52 -77 49 -20 88 -55 84 -75 -3 -14 0 -17 12 -13 8 3 18 2 21 -2 2 -5 -11
-12 -30 -15 -20 -4 -52 -18 -72 -32 -20 -13 -40 -24 -46 -24 -5 0 -3 -7 4 -17
10 -12 14 -54 15 -164 0 -82 3 -151 7 -155 3 -3 2 -17 -3 -30 -8 -21 -6 -24
18 -30 66 -14 69 -25 11 -48 -37 -15 -40 -19 -37 -49 2 -26 8 -33 30 -35 25
-3 27 -7 30 -60 l3 -57 128 -3 c74 -1 135 2 146 8 14 7 22 7 26 0 8 -14 25 -3
20 13 -7 18 124 89 152 82 21 -5 23 -3 17 19 -4 18 0 28 17 40 26 17 74 22 64
6 -3 -5 1 -10 10 -10 9 0 14 3 12 8 -4 6 69 5 383 -4 36 -1 79 -6 95 -11 25
-8 181 -8 265 0 23 2 25 -1 25 -38 0 -22 4 -46 8 -52 4 -7 3 -31 -3 -54 -6
-23 -8 -45 -3 -48 4 -3 9 -23 10 -43 1 -27 -3 -39 -15 -42 -9 -3 -157 -8 -329
-10 -288 -4 -393 -14 -393 -34 0 -30 30 -32 452 -32 l428 0 0 23 c0 35 -19 47
-71 47 l-47 0 -4 66 c-1 36 -1 99 2 140 5 69 7 75 33 89 24 12 27 12 27 -1 0
-11 6 -13 23 -8 23 8 680 8 732 0 39 -6 73 17 92 62 15 35 14 37 -10 57 -24
19 -25 23 -16 64 7 30 6 54 -1 74 -21 60 -18 63 80 77 63 9 94 18 99 29 5 9
17 53 27 99 l17 82 197 0 197 0 29 -112 c33 -127 42 -138 104 -122 22 6 40 7
40 3 0 -5 11 -9 25 -9 l25 0 0 -184 c0 -101 3 -191 6 -200 9 -24 40 -19 62 10
l19 27 29 -21 c16 -11 44 -23 62 -27 30 -6 33 -4 46 26 13 32 14 32 18 9 2
-19 9 -25 26 -24 12 0 22 -3 22 -8 0 -4 9 -8 20 -8 17 0 19 5 15 28 -5 25 -5
25 4 5 12 -27 28 -29 59 -7 20 14 22 14 22 -1 0 -28 49 -38 92 -19 28 13 52
15 96 11 58 -6 139 12 153 34 4 7 25 5 60 -5 66 -18 125 -16 160 7 14 10 34
15 43 11 9 -3 23 -1 31 6 8 6 19 9 24 5 6 -3 21 16 35 42 32 63 64 96 87 90
10 -3 26 1 36 9 17 13 17 15 1 27 -27 22 -17 51 22 62 28 9 35 16 35 35 0 31
39 87 65 95 22 7 27 31 8 38 -7 3 -1 6 14 6 25 1 27 -2 30 -46 l3 -48 900 -3
c895 -2 901 -2 903 18 1 11 2 26 3 33 1 6 -4 45 -11 86 l-12 74 -112 -9 c-184
-14 -233 -12 -250 11 -8 11 -43 84 -77 162 -62 140 -63 142 -99 148 -20 3
-155 -3 -301 -15 -212 -18 -267 -25 -281 -38 -9 -10 -37 -89 -62 -176 -25 -88
-51 -163 -58 -167 -7 -5 -35 -10 -63 -13 -196 -20 -306 -28 -311 -23 -5 5 32
122 230 717 35 107 121 368 190 580 69 212 130 391 134 398 11 16 270 36 288
22 11 -10 93 -171 223 -440 33 -69 117 -235 187 -370 69 -135 169 -329 221
-432 82 -163 113 -216 113 -193 0 22 -132 1107 -138 1135 -7 30 -12 36 -42 40
-30 4 -35 10 -42 41 -4 20 -8 87 -10 149 l-3 113 33 9 c31 8 32 10 32 67 0 32
-3 73 -6 90 -6 28 -10 31 -43 32 -20 0 -51 6 -68 12 -25 9 -159 8 -590 -5
-307 -9 -622 -17 -701 -16 -122 1 -146 -2 -160 -16 -15 -14 -17 -48 -20 -244
-3 -158 -7 -229 -15 -234 -19 -12 -48 -9 -45 5 1 6 -1 22 -6 34 -4 12 -3 30 3
40 11 22 -5 49 -34 54 -11 2 -26 19 -34 37 -11 25 -21 32 -42 32 -15 0 -31 5
-34 11 -4 6 -14 8 -22 5 -8 -3 -19 -4 -24 -1 -13 9 -230 9 -260 0 -15 -4 -30
-2 -33 3 -7 11 -96 -6 -131 -25 -14 -8 -34 -8 -65 -2 -71 16 -148 22 -167 14
-28 -11 -138 -8 -161 4 -11 6 -54 11 -94 11 -41 0 -79 5 -84 10 -8 8 -20 7
-40 -1 -16 -7 -47 -15 -69 -18 l-40 -6 -5 -595 c-4 -444 -8 -595 -17 -595 -6
0 -15 -3 -19 -7 -4 -5 2 -8 14 -8 22 0 22 -2 21 -162 l0 -163 -24 65 c-13 36
-35 109 -50 163 -18 62 -33 97 -41 97 -8 0 -14 5 -14 11 0 6 7 9 15 5 8 -3 15
-3 15 1 0 46 -167 762 -182 781 -6 6 -27 12 -47 13 -20 0 -71 6 -113 13 -42 7
-84 9 -91 4 -8 -4 -18 -28 -21 -53 -4 -25 -21 -77 -37 -117 -16 -39 -27 -73
-25 -75 2 -3 -2 -21 -11 -41 -8 -20 -21 -63 -28 -96 -13 -59 -51 -208 -133
-523 -22 -83 -43 -156 -46 -162 -12 -19 -26 -12 -26 13 0 14 -4 28 -10 31 -6
4 -10 -11 -10 -39 0 -38 -6 -52 -41 -93 -50 -57 -55 -60 -64 -33 -10 30 5 82
24 87 12 3 16 14 16 39 -2 33 1 36 40 46 l42 11 -5 106 c-2 58 -3 115 -2 126
1 11 1 45 0 75 -2 135 -2 188 2 395 3 121 8 229 12 240 6 16 6 17 -3 5 -8 -11
-11 -3 -11 37 0 61 -15 78 -24 28 -13 -69 -25 -30 -17 57 0 9 11 27 24 40 17
17 21 33 19 63 -1 22 -5 91 -8 153 -7 128 -24 152 -24 33 l0 -80 -37 35 c-43
39 -77 51 -97 35 -8 -7 -22 -8 -36 -3 -13 5 -42 5 -64 1 -23 -4 -140 -8 -261
-9 -121 -1 -240 -2 -265 -3 l-45 -2 -3 250 c-2 137 -5 252 -8 254 -14 14 -20
-31 -18 -141 1 -90 -2 -131 -13 -151 -11 -22 -12 -36 -4 -58 5 -16 7 -29 4
-29 -3 0 -1 -6 4 -12 7 -10 10 -71 4 -109 -1 -6 -239 -17 -546 -25 -316 -7
-513 -14 -570 -18 -40 -3 -53 -2 -39 4 12 5 28 18 37 30 8 11 21 18 29 15 11
-4 14 3 14 32 1 21 -1 30 -3 21 -9 -37 -73 -15 -73 24 0 20 16 23 55 8 22 -8
32 -6 58 14 18 14 44 28 60 31 29 8 39 45 12 45 -21 0 -19 9 7 31 11 11 18 22
15 26 -4 3 0 14 9 24 20 22 9 42 -20 35 -11 -3 -27 -1 -35 3 -8 6 -30 4 -53
-5 -26 -9 -46 -10 -62 -4 -13 5 -26 7 -29 4 -2 -3 -26 0 -53 7 -27 6 -78 14
-113 17 -46 5 -67 12 -75 25 -9 14 -7 20 7 28 9 6 15 14 12 20 -4 5 -3 9 0 9
10 0 69 -32 85 -46 13 -11 26 -9 83 11 73 27 122 36 207 38 52 2 56 4 82 42
15 22 36 63 46 91 l20 50 -34 54 c-21 33 -34 67 -34 87 l0 33 60 0 c47 0 60
-3 60 -15 0 -8 -4 -15 -10 -15 -5 0 -10 -3 -10 -8 0 -4 18 -8 39 -8 22 -1 51
-4 65 -8 21 -5 26 -3 26 13 0 10 9 21 20 24 25 6 26 24 3 31 -15 4 -15 5 2 4
46 -1 65 3 65 12 0 7 -190 10 -549 10 l-549 0 1 -437z m4411 -427 c30 -8 64
-20 76 -26 34 -18 79 -88 101 -159 21 -63 22 -83 20 -416 l-2 -350 28 -26 c15
-15 37 -29 48 -33 25 -7 53 -48 36 -54 -7 -2 -11 -47 -11 -139 l0 -136 -202 6
c-112 4 -238 7 -281 7 l-77 0 2 163 c3 160 3 162 26 165 56 8 72 97 72 416 l0
228 -39 39 c-54 54 -99 54 -153 2 l-38 -37 0 -302 0 -302 29 -24 28 -24 -5
-155 c-4 -126 -8 -156 -21 -166 -9 -6 -20 -8 -26 -3 -5 4 -120 8 -254 9 -134
0 -244 2 -245 3 0 2 0 76 2 166 3 147 5 162 21 162 10 0 26 9 35 19 40 44 45
86 46 358 l0 262 -31 36 c-17 19 -37 35 -45 35 -11 0 -14 27 -14 142 l0 141
143 -6 c78 -4 181 -7 230 -7 79 0 87 -2 87 -19 0 -26 15 -34 39 -22 10 6 56
22 102 35 97 29 192 33 273 12z m-2309 -133 c-2 -60 27 -451 39 -543 3 -19 8
-150 11 -290 3 -140 8 -346 11 -457 l6 -203 -63 0 c-57 0 -210 -20 -279 -37
l-25 -6 23 25 c29 32 28 44 -3 24 -24 -16 -25 -15 -33 16 -5 18 -6 34 -3 36 3
1 3 48 -1 105 -3 56 -10 233 -14 392 -6 261 -14 348 -30 332 -3 -3 -7 -38 -8
-79 -2 -40 -24 -174 -50 -298 -67 -322 -80 -375 -93 -375 -19 0 -28 -16 -14
-24 16 -11 25 -110 12 -144 -8 -20 -17 -25 -46 -25 -21 0 -81 -3 -135 -7 l-98
-7 -15 28 c-24 47 -93 275 -152 504 -71 274 -106 390 -117 390 -5 0 -7 -4 -4
-9 7 -10 12 -118 21 -401 4 -113 11 -243 16 -290 12 -115 13 -110 -21 -110
-35 0 -38 -10 -10 -35 20 -18 21 -18 27 3 3 12 10 22 15 22 6 0 7 -7 4 -16 -3
-8 -2 -12 4 -9 6 3 10 -1 10 -10 0 -11 -5 -15 -15 -12 -8 4 -17 2 -20 -3 -4
-6 -1 -10 4 -10 6 0 11 -11 11 -25 0 -19 -5 -25 -22 -24 -13 0 -17 3 -10 6 26
10 10 23 -30 24 -28 1 -34 3 -18 6 73 13 27 44 -68 47 -47 1 -66 -3 -70 -13
-4 -11 5 -12 42 -7 38 6 46 5 46 -8 0 -10 -9 -16 -25 -16 -16 0 -25 -6 -25
-15 0 -15 22 -20 66 -16 12 1 32 -3 45 -8 19 -7 8 -10 -56 -17 -44 -5 -92 -7
-108 -6 -24 3 -101 -15 -153 -35 -12 -4 -15 -2 -12 8 2 7 15 16 29 19 22 6 24
10 22 68 l-3 61 36 -1 c19 -1 40 4 46 10 9 9 1 12 -35 12 -26 0 -47 1 -47 3
-1 1 -3 67 -6 147 -3 80 -8 147 -10 149 -2 3 -36 -3 -76 -12 -39 -10 -73 -15
-76 -12 -14 13 24 33 75 38 78 8 83 15 76 120 l-6 88 -31 -6 -31 -7 31 29 31
28 -8 100 c-4 55 -10 156 -14 225 -6 132 -13 188 -23 205 -4 5 -7 43 -7 83 0
54 -4 75 -15 82 -12 8 -13 11 -1 19 9 6 12 26 10 72 l-4 64 55 7 c128 15 451
31 459 22 5 -5 32 -97 60 -204 29 -107 67 -244 87 -305 19 -60 54 -186 77
-279 42 -162 61 -205 71 -154 17 89 46 338 39 338 -3 0 -23 -14 -44 -31 -21
-17 -39 -27 -39 -23 0 13 43 54 57 54 16 0 17 12 2 27 -7 7 -2 17 20 32 34 25
40 41 14 41 -16 0 -16 1 0 13 21 15 45 132 53 255 3 48 12 128 21 178 l15 91
91 12 c51 6 141 14 202 17 60 3 112 7 114 10 2 2 30 4 61 4 l57 0 -2 -67z
m947 -660 c66 -252 77 -296 78 -310 0 -10 -25 -13 -95 -13 -69 0 -95 3 -96 13
0 10 -2 10 -6 0 -2 -7 -18 -13 -35 -13 -24 0 -29 4 -26 18 3 9 31 126 63 259
32 134 61 241 63 238 2 -2 27 -89 54 -192z"/>
<path d="M11125 7813 c-32 -8 -62 -41 -84 -94 -18 -42 -20 -55 -11 -96 20 -87
47 -112 132 -118 59 -4 94 10 132 55 22 27 26 41 26 96 0 78 -17 116 -63 137
-38 18 -102 28 -132 20z"/>
<path d="M5390 7721 c0 -6 7 -11 15 -11 8 0 24 -9 34 -19 10 -10 27 -22 38
-25 85 -27 643 -60 656 -39 4 6 -125 26 -341 52 -191 23 -359 44 -374 47 -17
3 -28 1 -28 -5z"/>
<path d="M2965 7649 c-10 -11 -25 -17 -32 -15 -7 3 -25 1 -40 -5 -19 -7 -29
-7 -31 0 -2 6 -9 8 -15 4 -7 -5 -61 -8 -122 -9 -60 0 -168 -4 -240 -8 -71 -3
-208 -10 -303 -15 -156 -8 -209 -16 -175 -28 9 -3 9 -10 -2 -27 l-15 -23 151
-6 c84 -4 230 -7 325 -7 95 0 179 -3 188 -6 27 -10 18 -30 -24 -50 -22 -10
-40 -25 -40 -33 0 -9 -9 -12 -30 -9 -16 3 -30 2 -30 -1 0 -3 -20 -17 -45 -30
-25 -13 -45 -28 -45 -32 0 -5 -13 -9 -29 -9 -16 0 -34 -7 -41 -15 -10 -12 -9
-15 6 -15 11 0 2 -8 -21 -20 -22 -11 -50 -20 -63 -20 -12 0 -36 -10 -52 -22
-31 -22 -40 -48 -18 -48 7 0 2 -7 -10 -16 -13 -9 -21 -22 -18 -29 3 -8 -6 -30
-20 -50 -24 -36 -24 -36 -3 -30 16 5 20 3 17 -6 -3 -8 -15 -13 -27 -12 -11 2
-21 -2 -21 -7 0 -6 -7 -10 -15 -10 -8 0 -15 -4 -15 -10 0 -5 -7 -10 -15 -10
-11 0 -12 5 -5 26 13 33 13 34 -5 34 -8 0 -15 5 -15 11 0 5 -5 7 -10 4 -6 -3
-19 -3 -30 0 -16 5 -20 15 -20 46 0 29 -5 41 -17 45 -10 3 -26 10 -35 14 -19
11 -33 -16 -23 -42 7 -18 -49 -63 -65 -53 -6 3 -13 -1 -16 -9 -3 -9 -10 -13
-15 -10 -5 3 -16 -2 -25 -11 -9 -9 -24 -13 -35 -10 -18 6 -19 -6 -19 -419 0
-234 2 -426 5 -426 28 0 85 51 90 80 21 111 36 77 36 -81 1 -132 0 -133 -25
-152 -30 -22 -35 -57 -8 -57 16 0 19 -9 21 -60 1 -42 -2 -60 -10 -60 -29 0
-79 25 -85 42 -10 32 -24 19 -24 -22 0 -25 5 -40 13 -41 6 -1 32 -2 57 -3 l45
-1 0 -120 0 -120 25 0 c23 0 26 5 37 75 7 41 15 147 18 235 3 88 8 234 11 325
4 91 6 257 5 370 0 113 2 223 5 246 l5 41 72 7 c40 3 83 7 97 9 l25 2 0 -190
c0 -239 -9 -401 -25 -440 -7 -18 -13 -103 -16 -218 -2 -104 -5 -191 -7 -195
-2 -4 -2 -69 1 -144 l4 -138 47 -1 c25 0 78 -2 116 -4 39 -1 106 -4 150 -6
l80 -4 7 190 c4 105 11 241 14 304 l6 114 183 -7 182 -7 6 57 c3 32 11 61 18
65 10 6 10 11 1 21 -8 11 -8 27 2 65 15 57 11 103 -10 103 -15 0 -19 12 -7 23
3 4 13 2 20 -5 10 -8 17 -8 21 -2 4 6 15 13 25 17 21 8 23 27 1 27 -8 0 -12 5
-9 10 4 6 2 16 -3 23 -6 7 -12 16 -14 22 -1 5 -10 10 -18 10 -8 1 -32 5 -52 9
-28 5 -38 4 -38 -6 -1 -7 -11 -1 -23 15 -13 15 -27 24 -31 20 -4 -5 -24 -8
-44 -9 -96 -2 -92 0 -92 -49 0 -41 2 -45 25 -45 16 0 25 6 25 16 0 11 6 14 20
9 11 -3 20 -2 20 3 0 5 11 7 25 4 14 -2 25 -9 25 -14 0 -5 -4 -6 -10 -3 -13 8
-13 -8 1 -22 8 -8 18 -7 37 3 36 19 46 18 67 -6 16 -18 16 -20 2 -20 -10 0
-17 -5 -17 -11 0 -7 -51 -8 -162 -3 -90 4 -165 8 -166 10 -2 1 -1 11 2 22 7
20 24 22 74 7 37 -12 27 23 -20 66 -43 39 -43 39 -40 102 6 110 -15 101 216
94 110 -4 231 -10 268 -13 l67 -7 4 74 c2 41 2 0 0 -90 -2 -91 -7 -169 -11
-175 -3 -6 -5 -47 -3 -92 3 -104 -11 -157 -54 -199 l-35 -33 38 -9 c42 -10 39
5 29 -163 -4 -79 -8 -95 -24 -101 -16 -7 -16 -8 5 -15 19 -6 22 -13 22 -65 l0
-58 38 -10 c20 -6 56 -11 78 -11 23 0 46 -6 52 -12 14 -18 24 -165 16 -226
l-7 -52 -67 0 c-49 0 -71 -4 -80 -15 -21 -26 -1 -33 108 -37 l102 -4 1 146 c0
138 1 144 16 120 9 -14 47 -55 83 -91 75 -76 175 -129 325 -176 79 -24 105
-27 210 -26 194 1 381 47 511 124 59 35 204 168 204 187 0 6 -70 74 -156 153
-111 102 -160 140 -169 133 -169 -124 -232 -155 -324 -156 -147 -2 -271 122
-271 270 l0 35 118 -7 c64 -3 275 -9 469 -12 l352 -7 6 24 c8 34 2 399 -7 399
-18 0 -6 28 13 33 14 4 20 11 16 21 -4 9 1 17 14 21 14 5 19 15 19 39 0 37
-15 56 -46 56 -20 0 -21 -3 -13 -40 7 -29 6 -47 -3 -63 -12 -20 -13 -18 -18
28 -3 28 -19 75 -35 105 -33 61 -35 100 -4 100 10 0 19 7 19 15 0 8 -4 15 -9
15 -5 0 -14 -7 -21 -15 -20 -24 -41 -19 -34 9 4 18 1 25 -15 29 -15 3 -21 13
-21 31 0 17 -6 26 -15 26 -8 0 -43 28 -78 63 -105 106 -264 174 -434 184 -197
12 -378 -41 -540 -160 -72 -53 -147 -146 -137 -171 4 -9 1 -16 -6 -16 -9 0 -7
-7 5 -20 19 -21 16 -52 -9 -85 -14 -18 -15 24 -16 413 l0 432 -177 -1 c-163 0
-180 -2 -198 -20z m160 -167 c3 -7 9 -11 14 -8 13 9 22 -36 15 -83 -3 -24 -2
-41 4 -41 6 0 7 -14 1 -37 -5 -21 -9 -65 -9 -98 l0 -60 -107 2 c-243 3 -393
21 -393 45 0 5 4 7 9 4 5 -3 11 1 15 9 9 24 -22 18 -45 -9 -18 -21 -28 -24
-68 -20 -25 3 -63 5 -84 4 -37 -1 -77 23 -58 35 5 3 12 1 15 -4 3 -5 16 -7 28
-3 13 3 19 1 15 -5 -5 -7 0 -9 13 -6 12 3 19 11 17 17 -5 14 22 35 45 36 9 0
22 8 27 18 9 14 10 12 11 -15 0 -28 3 -32 27 -30 18 2 29 9 31 21 3 14 0 17
-12 13 -11 -5 -16 -1 -16 13 0 22 1 23 24 14 9 -3 16 -14 16 -25 0 -10 9 -23
19 -29 26 -13 31 -13 25 3 -3 8 4 13 18 14 12 1 28 9 34 18 6 8 15 15 19 15
16 0 75 51 75 66 0 7 9 14 20 14 13 0 20 7 20 19 0 11 9 22 19 26 11 3 33 21
49 40 30 33 48 39 129 41 19 0 35 -6 38 -14z m957 -678 c40 -20 82 -98 83
-153 1 -25 5 -60 9 -77 l7 -30 -198 4 c-109 2 -199 6 -201 7 -6 6 22 103 44
150 29 62 71 105 116 115 40 10 103 3 140 -16z"/>
<path d="M1823 7583 l-63 -4 0 -49 c0 -29 5 -50 13 -53 10 -4 10 -6 0 -6 -15
-1 -18 -41 -3 -41 12 0 31 35 23 44 -3 3 -2 6 4 6 15 0 44 -36 36 -44 -8 -7
47 3 56 10 2 2 -1 22 -8 44 -10 33 -16 40 -31 35 -10 -3 -21 -1 -25 5 -3 6
-11 8 -16 5 -5 -4 -9 -2 -9 3 0 14 25 18 107 17 48 0 74 4 77 12 3 7 2 14 -2
16 -9 5 -81 5 -159 0z"/>
<path d="M8919 7555 c-3 -2 -94 -5 -203 -7 -108 -1 -200 -6 -202 -10 -3 -4 1
-8 9 -8 7 0 20 -11 27 -25 15 -29 35 -28 35 1 0 16 8 20 49 22 71 5 83 -3 51
-30 -26 -22 -27 -58 -3 -58 6 0 8 7 5 15 -4 9 9 25 35 45 36 25 51 30 100 30
55 0 58 -1 48 -19 -8 -15 -5 -25 14 -48 12 -15 25 -35 28 -43 5 -12 7 -12 13
3 5 12 0 26 -15 42 -17 18 -20 27 -11 43 8 15 26 21 83 26 43 5 74 4 76 -2 1
-5 10 -18 18 -28 15 -18 15 -18 11 4 -4 19 0 24 24 29 16 3 29 9 29 14 0 9
-213 13 -221 4z"/>
<path d="M1937 7474 c4 -10 -1 -22 -12 -30 -10 -8 -15 -20 -11 -29 3 -9 -9
-39 -30 -71 -39 -61 -38 -68 22 -103 l33 -20 11 37 c5 21 13 76 16 124 6 81 6
86 -14 97 -18 10 -21 9 -15 -5z"/>
<path d="M11039 7465 c-1 -3 -1 -16 -1 -30 0 -99 -2 -95 44 -95 l41 0 -41 -30
c-40 -28 -42 -33 -42 -80 0 -28 5 -50 10 -50 6 0 42 16 80 35 l70 35 49 -35
c26 -19 52 -35 57 -35 11 0 17 75 9 101 -4 11 -20 26 -36 34 -52 27 -32 34 82
28 l110 -6 -3 64 -3 64 -212 3 c-117 1 -213 0 -214 -3z"/>
<path d="M5016 7338 c-8 -90 -33 -198 -47 -198 -5 0 -9 5 -9 11 0 7 -11 8 -30
4 -27 -6 -30 -4 -28 16 2 12 -2 24 -8 26 -7 2 -16 -20 -23 -54 -7 -39 -8 -59
-1 -61 16 -6 12 -22 -6 -22 -10 0 -14 -6 -11 -14 3 -7 1 -18 -5 -24 -7 -7 -4
-14 11 -21 12 -7 21 -21 21 -32 0 -16 4 -19 20 -14 12 4 20 2 20 -5 0 -6 12
-15 27 -21 l26 -10 -7 -192 c-3 -106 -12 -225 -20 -266 -7 -40 -11 -82 -9 -92
3 -11 1 -25 -5 -32 -10 -12 -17 -140 -14 -259 l2 -66 53 -30 c28 -16 61 -40
72 -53 11 -13 32 -33 45 -44 31 -25 66 -77 61 -90 -12 -33 -19 -120 -9 -126 7
-4 7 -13 -1 -27 -6 -11 -11 -41 -11 -66 l0 -46 38 0 c20 -1 65 -7 100 -14 54
-12 65 -12 77 1 8 8 15 20 16 26 0 7 9 -8 20 -32 12 -27 24 -41 32 -38 8 3 19
-12 30 -43 11 -30 25 -51 37 -55 32 -10 25 -35 -10 -35 -20 0 -30 -5 -30 -15
0 -8 8 -15 18 -15 10 0 37 -9 60 -20 23 -11 56 -23 72 -27 17 -3 33 -10 36
-14 9 -14 24 0 24 22 0 19 4 20 40 14 21 -4 49 -3 61 0 20 7 21 8 5 17 -9 5
-51 12 -92 15 -79 6 -104 22 -104 66 0 29 -31 115 -46 128 -17 14 -18 39 -2
39 6 0 4 7 -5 18 -10 10 -17 31 -17 45 0 17 -5 27 -14 27 -21 0 -86 40 -86 52
0 7 5 6 14 -1 10 -9 16 -8 25 3 16 18 11 48 -8 54 -10 3 -12 0 -8 -12 7 -18
-1 -20 -22 -7 -12 8 -11 14 5 38 10 15 19 30 19 33 0 3 3 10 7 16 10 15 -1 24
-28 24 -12 0 -25 7 -28 16 -8 20 4 143 14 149 4 2 5 27 2 54 -4 44 -2 51 21
66 14 9 36 15 49 13 20 -3 35 -38 139 -326 64 -177 120 -326 123 -330 19 -18
486 -51 486 -34 0 5 -58 181 -129 389 l-129 380 36 19 c53 28 160 131 199 191
33 52 93 213 93 251 0 11 7 27 15 36 10 10 12 17 5 21 -8 5 -7 11 1 21 9 11 8
18 -2 30 -7 9 -15 55 -19 108 -8 120 -39 186 -129 277 -76 76 -170 126 -296
158 -48 12 -213 32 -410 50 -181 17 -349 33 -371 36 l-41 6 -7 -83z m639 -388
c7 -6 21 -7 30 -3 15 5 17 3 12 -11 -6 -15 -3 -17 18 -12 18 5 25 2 25 -8 0
-9 9 -20 20 -26 30 -16 54 -110 46 -181 -9 -77 -59 -168 -106 -192 -33 -17
-96 -18 -242 -7 -16 1 -18 14 -18 109 0 59 5 123 11 141 l12 32 63 -4 c68 -4
85 9 44 34 -11 7 -20 18 -20 25 0 7 -3 12 -7 12 -20 -3 -35 3 -53 21 -26 26
-25 44 3 58 17 8 18 11 5 11 -9 1 -20 6 -24 13 -9 15 162 4 181 -12z"/>
<path d="M4680 7296 c0 -19 -1 -19 -35 -6 -34 13 -65 -3 -65 -33 0 -23 -20
-62 -20 -39 0 20 -35 14 -58 -11 -32 -34 -28 -45 18 -43 31 2 49 10 78 37 33
32 40 35 65 25 15 -5 27 -13 27 -18 0 -4 -18 -20 -40 -34 -38 -26 -40 -28 -24
-45 25 -28 43 -23 60 16 15 37 27 46 22 18 -2 -10 4 -19 15 -21 16 -3 18 4 15
75 -2 59 -6 77 -17 75 -7 -1 -19 3 -27 9 -11 9 -14 8 -14 -5z"/>
<path d="M14921 6683 c-67 -228 -121 -424 -121 -437 0 -12 11 -16 43 -16 83 0
337 24 337 32 0 27 -211 471 -229 482 -6 4 -18 -22 -30 -61z"/>
<path d="M8936 5575 c-15 -14 -32 -25 -38 -25 -5 0 -8 -7 -4 -15 4 -11 -2 -15
-27 -15 -24 0 -28 3 -17 10 8 5 11 12 7 16 -4 4 -16 -1 -27 -11 -21 -19 -42
-13 -22 7 25 25 11 36 -15 12 -17 -15 -35 -23 -46 -20 -20 5 -57 -13 -57 -28
0 -4 9 -6 20 -3 24 6 25 -2 5 -29 -8 -10 -15 -22 -15 -25 0 -14 62 -15 82 -1
17 13 55 14 234 9 l214 -5 0 22 c0 32 -24 61 -44 53 -10 -4 -26 -2 -37 3 -15
8 -21 7 -25 -4 -5 -12 -10 -13 -26 -5 -15 8 -22 8 -28 -1 -10 -17 -81 -6 -96
15 -14 19 -24 19 -24 -1 0 -9 -5 -14 -12 -12 -22 8 -19 24 7 36 14 6 25 18 25
27 0 20 -2 19 -34 -10z"/>
<path d="M4816 5390 c-17 -6 -15 -8 14 -18 18 -7 43 -12 55 -12 27 0 38 -10
26 -24 -5 -6 -12 -27 -16 -47 -5 -30 -3 -37 12 -43 16 -7 16 -9 2 -19 -17 -13
-30 -42 -22 -50 2 -3 21 6 40 19 20 13 40 24 45 24 15 0 64 -28 77 -44 14 -17
32 -22 29 -8 -1 4 4 20 10 35 16 38 9 47 -36 46 -43 0 -118 21 -123 36 -2 6
15 11 39 13 26 2 51 11 63 23 15 15 33 19 81 19 36 0 68 -5 77 -13 9 -8 50
-19 91 -25 41 -7 85 -15 96 -18 17 -4 22 0 26 19 6 29 -10 37 -82 37 -25 0
-119 11 -210 24 -204 30 -269 36 -294 26z"/>
<path d="M5208 5274 c-25 -14 -46 -24 -66 -30 -21 -6 -26 -35 -8 -52 15 -15
16 -15 16 6 0 26 7 28 31 6 16 -14 18 -13 31 13 18 38 32 35 36 -8 3 -36 3
-37 -40 -42 -27 -3 -51 1 -66 10 -18 11 -26 12 -38 2 -21 -17 -17 -39 9 -39
21 -1 21 -2 4 -14 -15 -11 -15 -15 -3 -19 8 -3 21 4 30 16 l15 22 0 -22 c1
-30 18 -38 31 -13 14 25 30 26 30 1 0 -35 12 -51 36 -51 22 0 24 4 24 54 0 46
3 56 20 61 26 8 26 45 0 77 -24 31 -61 40 -92 22z"/>
<path d="M7515 5240 c-38 -4 -122 -12 -185 -19 -63 -6 -146 -14 -185 -17 l-69
-6 34 -15 c27 -11 59 -13 135 -8 110 6 385 54 385 67 0 9 -11 9 -115 -2z"/>
<path d="M11395 5079 c-33 -10 -85 -19 -115 -19 -30 0 -93 -5 -140 -11 -47 -6
-98 -11 -114 -10 -16 0 -36 -4 -43 -10 -7 -7 -13 -8 -13 -4 0 4 -7 2 -15 -5
-8 -7 -12 -16 -9 -21 3 -5 124 -9 270 -9 l264 0 0 55 c0 62 2 62 -85 34z"/>
</g>
</svg>
